# xmcd CD database file
#
# Track frame offsets:
#	150
#	23821
#	45060
#	71975
#	79138
#	93888
#	116791
#	133635
#	164443
#	187186
#
# Disc length: 2657 seconds
#
# Revision: 0
# Processed by: cddbd v1.5PL3 Copyright (c) Steve Scherf et al.
# Submitted via: cdripper 1.0.7
#
DISCID=830a5f0a
DTITLE=Furry Lewis With Bukka White and Gus Cannon - On the Road Again
DYEAR=1999
DGENRE=Blues
TTITLE0=On the Road Again
TTITLE1=My Wife Is Getting Old 
TTITLE2=Why Don't You Come Home Blues
TTITLE3=Lela
TTITLE4=Oh Babe
TTITLE5=I've Got a Bird to Whistle
TTITLE6=Give Me an Old Lady 
TTITLE7=Furry's Worried Blues
TTITLE8=Gibson Hill
TTITLE9=Goin' Back
EXTD=YEAR: 1999
EXTT0=
EXTT1=
EXTT2=
EXTT3=
EXTT4=
EXTT5=
EXTT6=
EXTT7=
EXTT8=
EXTT9=
PLAYORDER=
